<?xml version="1.0" standalone="no"?>
<!DOCTYPE svg PUBLIC "-//W3C//DTD SVG 20010904//EN"
 "http://www.w3.org/TR/2001/REC-SVG-20010904/DTD/svg10.dtd">
<svg version="1.0" xmlns="http://www.w3.org/2000/svg"
 width="500.000000pt" height="500.000000pt" viewBox="0 0 500.000000 500.000000"
 preserveAspectRatio="xMidYMid meet">

<g transform="translate(0.000000,500.000000) scale(0.100000,-0.100000)"
fill="#000000" stroke="none">
<path d="M0 2500 l0 -2500 1165 0 1165 0 0 1235 0 1235 170 0 170 0 0 -1235 0
-1235 1165 0 1165 0 0 2500 0 2500 -2500 0 -2500 0 0 -2500z m3495 1045 c173
-36 336 -158 409 -306 70 -144 66 -62 66 -1411 l0 -1218 -290 0 -290 0 0 1180
0 1180 -890 0 -890 0 0 -1180 0 -1180 -292 2 -293 3 0 1215 c0 1346 -4 1261
68 1405 76 152 234 272 407 309 99 22 1894 22 1995 1z"/>
</g>
</svg>
